<!DOCTYPE svg PUBLIC "-//W3C//DTD SVG 1.1//EN" "http://www.w3.org/Graphics/SVG/1.1/DTD/svg11.dtd">

<!-- Uploaded to: SVG Repo, www.svgrepo.com, Transformed by: SVG Repo Mixer Tools -->
<svg width="11" height="12" viewBox="-2.4 -2.4 28.80 28.80" id="Layer_1" data-name="Layer 1" xmlns="http://www.w3.org/2000/svg" fill="#000000" transform="matrix(1, 0, 0, 1, 0, 0)rotate(0)">

<g id="SVGRepo_bgCarrier" stroke-width="0"/>

<g id="SVGRepo_tracerCarrier" stroke-linecap="round" stroke-linejoin="round"/>

<g id="SVGRepo_iconCarrier">

<defs>

<style>.cls-1{fill:none;stroke:#F37001;stroke-miterlimit:10;stroke-width:1.08;}</style>

</defs>

<line class="cls-1" x1="5.32" y1="8.18" x2="18.68" y2="8.18"/>

<line class="cls-1" x1="10.09" y1="17.73" x2="13.91" y2="17.73"/>

<line class="cls-1" x1="12" y1="8.18" x2="12" y2="17.73"/>

<polyline class="cls-1" points="16.77 18.68 16.77 12 22.5 12"/>

<polyline class="cls-1" points="22.5 5.32 22.5 12 22.5 18.68"/>

<line class="cls-1" x1="16.77" y1="15.82" x2="22.5" y2="15.82"/>

<polyline class="cls-1" points="16.77 18.68 16.77 12 22.5 12"/>

<polyline class="cls-1" points="22.5 5.32 22.5 12 22.5 18.68"/>

<line class="cls-1" x1="16.77" y1="15.82" x2="22.5" y2="15.82"/>

<polyline class="cls-1" points="7.23 18.68 7.23 12 1.5 12"/>

<polyline class="cls-1" points="1.5 5.32 1.5 12 1.5 18.68"/>

<line class="cls-1" x1="7.23" y1="15.82" x2="1.5" y2="15.82"/>

</g>

</svg>