<svg width="19" height="25" viewBox="0 0 19 25" fill="none" xmlns="http://www.w3.org/2000/svg">
<path d="M8.53652 24.4956C1.44189 14.2105 0.125 13.1549 0.125 9.375C0.125 4.19731 4.32231 0 9.5 0C14.6777 0 18.875 4.19731 18.875 9.375C18.875 13.1549 17.5581 14.2105 10.4635 24.4956C9.9979 25.1682 9.00205 25.1681 8.53652 24.4956ZM9.5 13.2812C11.6574 13.2812 13.4062 11.5324 13.4062 9.375C13.4062 7.21763 11.6574 5.46875 9.5 5.46875C7.34263 5.46875 5.59375 7.21763 5.59375 9.375C5.59375 11.5324 7.34263 13.2812 9.5 13.2812Z" fill="black"/>
</svg>
