<?xml version="1.0" encoding="UTF-8"?>
<svg version="1.1" xmlns="http://www.w3.org/2000/svg" width="50" height="50">
<path d="M0 0 C4.06210086 0.69798123 5.2231108 2.43498282 7.70629883 5.66137695 C12.26983666 11.32612121 16.01862099 14.26258282 23.4140625 15.08203125 C29.61514347 15.42072908 35.80056201 15.33986399 42 15 C42 18.3 42 21.6 42 25 C35.565 25.495 35.565 25.495 29 26 C30.485 27.423125 31.97 28.84625 33.5 30.3125 C36.03125 32.73828125 36.03125 32.73828125 38 35 C38 35.99 38 36.98 38 38 C34.54628537 37.41520485 32.88920397 36.26750395 30.42480469 33.81298828 C29.74440125 33.14204132 29.0639978 32.47109436 28.36297607 31.77981567 C27.63991272 31.05067963 26.91684937 30.32154358 26.171875 29.5703125 C25.42286926 28.82417694 24.67386353 28.07804138 23.90216064 27.30929565 C22.32170611 25.73088199 20.74503136 24.14867592 19.171875 22.56298828 C16.75585987 20.13089885 14.32425532 17.71522977 11.890625 15.30078125 C10.35841194 13.76658621 8.82712952 12.23146105 7.296875 10.6953125 C6.56571472 9.97022491 5.83455444 9.24513733 5.08123779 8.49807739 C4.41344299 7.82082611 3.74564819 7.14357483 3.05761719 6.44580078 C2.46567566 5.85147247 1.87373413 5.25714417 1.26385498 4.64480591 C0 3 0 3 0 0 Z M20 17 C22.30993633 20.18426102 22.30993633 20.18426102 25 23 C27.71305777 23.50379029 27.71305777 23.50379029 30 23 C30 21.02 30 19.04 30 17 C26.7 17 23.4 17 20 17 Z M32 17 C32 18.98 32 20.96 32 23 C32.99 23 33.98 23 35 23 C35 21.02 35 19.04 35 17 C34.01 17 33.02 17 32 17 Z M37 17 C37 18.98 37 20.96 37 23 C37.99 23 38.98 23 40 23 C40 21.02 40 19.04 40 17 C39.01 17 38.02 17 37 17 Z " fill="#FD7E14" transform="translate(8,9)"/>
<path d="M0 0 C6.27 0 12.54 0 19 0 C19.33 0.66 19.66 1.32 20 2 C14.06 2 8.12 2 2 2 C2 3.98 2 5.96 2 8 C10.25 8 18.5 8 27 8 C27.33 8.66 27.66 9.32 28 10 C18.76 10 9.52 10 0 10 C0 6.7 0 3.4 0 0 Z " fill="#FC7D13" transform="translate(0,24)"/>
<path d="M0 0 C1.32 0.33 2.64 0.66 4 1 C3.34 3.64 2.68 6.28 2 9 C2.84304687 9.19335938 3.68609375 9.38671875 4.5546875 9.5859375 C5.65039062 9.84632812 6.74609375 10.10671875 7.875 10.375 C8.96554688 10.63023438 10.05609375 10.88546875 11.1796875 11.1484375 C14 12 14 12 16 14 C16.125 16.625 16.125 16.625 16 19 C15.34 19 14.68 19 14 19 C13.67 17.68 13.34 16.36 13 15 C12.16855469 14.84144531 11.33710937 14.68289062 10.48046875 14.51953125 C8.85044922 14.16955078 8.85044922 14.16955078 7.1875 13.8125 C5.56908203 13.48185547 5.56908203 13.48185547 3.91796875 13.14453125 C1 12 1 12 -0.9375 9.625 C-2.44192366 5.90818861 -1.36285163 3.65818068 0 0 Z " fill="#FD7B12" transform="translate(27,4)"/>
<path d="M0 0 C6.460199 -0.36567164 6.460199 -0.36567164 8.9375 1.3125 C10 3 10 3 10 6 C10.804375 6.144375 11.60875 6.28875 12.4375 6.4375 C15 7 15 7 16 8 C16.07179964 9.51928038 16.08392007 11.04167482 16.0625 12.5625 C16.05347656 13.38878906 16.04445313 14.21507812 16.03515625 15.06640625 C16.02355469 15.70449219 16.01195313 16.34257812 16 17 C15.01 17 14.02 17 13 17 C12.938125 15.906875 12.87625 14.81375 12.8125 13.6875 C12.4061227 9.86420202 12.4061227 9.86420202 9.5 8.25 C8.675 7.8375 7.85 7.425 7 7 C6.67 6.01 6.34 5.02 6 4 C2.99152582 2.77479736 2.99152582 2.77479736 0 2 C0 1.34 0 0.68 0 0 Z " fill="#FC7D12" transform="translate(33,5)"/>
</svg>
