<?xml version="1.0" encoding="UTF-8"?>
<svg version="1.1" xmlns="http://www.w3.org/2000/svg" width="50" height="50">
<path d="M0 0 C0.66 0 1.32 0 2 0 C2 2.97 2 5.94 2 9 C2.66 9 3.32 9 4 9 C4 6.03 4 3.06 4 0 C4.66 0 5.32 0 6 0 C6 2.97 6 5.94 6 9 C7.051875 9.0309375 7.051875 9.0309375 8.125 9.0625 C12.28624038 10.41942621 14.75775517 13.2783359 17 17 C17 18.32 17 19.64 17 21 C18.32 21 19.64 21 21 21 C21 22.98 21 24.96 21 27 C9.12 27 -2.76 27 -15 27 C-15 25.02 -15 23.04 -15 21 C-13.68 21 -12.36 21 -11 21 C-10.979375 20.13375 -10.95875 19.2675 -10.9375 18.375 C-9.66725958 13.8021345 -7.00243222 11.46437966 -3 9 C-2.01 9 -1.02 9 0 9 C0 6.03 0 3.06 0 0 Z M-7 16 C-7.33 17.65 -7.66 19.3 -8 21 C-0.74 21 6.52 21 14 21 C13.44717214 16.15836818 13.44717214 16.15836818 11.0625 13.6875 C4.95035555 10.31958367 -2.30799017 10.39985923 -7 16 Z M-12 23 C-12 23.66 -12 24.32 -12 25 C-2.1 25 7.8 25 18 25 C18 24.34 18 23.68 18 23 C8.1 23 -1.8 23 -12 23 Z " fill="#FC7D13" transform="translate(22,0)"/>
<path d="M0 0 C1.32 0 2.64 0 4 0 C4 1.32 4 2.64 4 4 C2.68 4 1.36 4 0 4 C0 2.68 0 1.36 0 0 Z " fill="#FC7D14" transform="translate(39,46)"/>
<path d="M0 0 C1.32 0 2.64 0 4 0 C4 1.32 4 2.64 4 4 C2.68 4 1.36 4 0 4 C0 2.68 0 1.36 0 0 Z " fill="#FC7D14" transform="translate(31,46)"/>
<path d="M0 0 C1.32 0 2.64 0 4 0 C4 1.32 4 2.64 4 4 C2.68 4 1.36 4 0 4 C0 2.68 0 1.36 0 0 Z " fill="#FC7D14" transform="translate(23,46)"/>
<path d="M0 0 C1.32 0 2.64 0 4 0 C4 1.32 4 2.64 4 4 C2.68 4 1.36 4 0 4 C0 2.68 0 1.36 0 0 Z " fill="#FC7D14" transform="translate(15,46)"/>
<path d="M0 0 C1.32 0 2.64 0 4 0 C4 1.32 4 2.64 4 4 C2.68 4 1.36 4 0 4 C0 2.68 0 1.36 0 0 Z " fill="#FC7D14" transform="translate(7,46)"/>
<path d="M0 0 C1.32 0 2.64 0 4 0 C4 1.32 4 2.64 4 4 C2.68 4 1.36 4 0 4 C0 2.68 0 1.36 0 0 Z " fill="#FC7D14" transform="translate(35,38)"/>
<path d="M0 0 C1.32 0 2.64 0 4 0 C4 1.32 4 2.64 4 4 C2.68 4 1.36 4 0 4 C0 2.68 0 1.36 0 0 Z " fill="#FC7D14" transform="translate(27,38)"/>
<path d="M0 0 C1.32 0 2.64 0 4 0 C4 1.32 4 2.64 4 4 C2.68 4 1.36 4 0 4 C0 2.68 0 1.36 0 0 Z " fill="#FC7D14" transform="translate(19,38)"/>
<path d="M0 0 C1.32 0 2.64 0 4 0 C4 1.32 4 2.64 4 4 C2.68 4 1.36 4 0 4 C0 2.68 0 1.36 0 0 Z " fill="#FC7D14" transform="translate(11,38)"/>
<path d="M0 0 C1.32 0 2.64 0 4 0 C4 1.32 4 2.64 4 4 C2.68 4 1.36 4 0 4 C0 2.68 0 1.36 0 0 Z " fill="#FC7D14" transform="translate(31,30)"/>
<path d="M0 0 C1.32 0 2.64 0 4 0 C4 1.32 4 2.64 4 4 C2.68 4 1.36 4 0 4 C0 2.68 0 1.36 0 0 Z " fill="#FC7D14" transform="translate(23,30)"/>
<path d="M0 0 C1.32 0 2.64 0 4 0 C4 1.32 4 2.64 4 4 C2.68 4 1.36 4 0 4 C0 2.68 0 1.36 0 0 Z " fill="#FC7D14" transform="translate(15,30)"/>
</svg>
